name C:\Users\tom_v\MusculoskeletalSpecialization\ResultsSprinting\Case_4\motion.mot
datacolumns 32
datarows 14
range 0.00000000 0.07268463
endheader 
time	pelvis_tilt	pelvis_list	pelvis_rotation	pelvis_tx	pelvis_ty	pelvis_tz	hip_flexion_r	hip_adduction_r	hip_rotation_r	knee_angle_r	ankle_angle_r	subtalar_angle_r	mtp_angle_r	hip_flexion_l	hip_adduction_l	hip_rotation_l	knee_angle_l	ankle_angle_l	subtalar_angle_l	mtp_angle_l	lumbar_extension	lumbar_bending	lumbar_rotation	arm_flex_r	arm_add_r	arm_rot_r	elbow_flex_r	arm_flex_l	arm_add_l	arm_rot_l	elbow_flex_l	
          0.00000000	        -15.60303276	         -0.13251337	         -0.23158514	          0.00000000	          0.82496853	          0.00025569	         48.60370343	          3.33869151	          3.75643111	        -27.86545626	         18.44301803	          3.45336894	          0.33425532	         14.38591792	         -1.14798452	         -2.50760611	        -52.96489283	          6.89524935	          9.52043935	          7.74939861	         -8.27195385	          2.76843300	         -2.72633188	        -17.92503189	        -20.88270999	         -9.04000173	         70.37023023	         -6.55674712	        -33.24391632	         19.38687493	         78.37373383	
          0.00559113	        -15.56623317	         -0.05462266	         -0.10361601	          0.01883676	          0.82276508	          0.00036950	         48.06903019	          3.40981630	          4.07677248	        -29.11322446	         17.79868679	          3.16716431	          0.31018758	         15.60205703	         -1.18652280	         -2.73383644	        -54.04785465	          8.36315249	          9.14885466	          7.20716950	         -8.21699370	          2.69780045	         -2.58442074	        -15.99297451	        -21.19989188	         -7.90676085	         65.89387104	         -5.83742008	        -32.11549750	         19.39813781	         74.29695113	
          0.01118225	        -15.53301622	          0.01649541	          0.01192357	          0.03743948	          0.82063576	          0.00050048	         47.63512549	          3.49021074	          4.32535642	        -30.49657077	         17.17336710	          2.83840067	          0.29146529	         16.91990939	         -1.21132690	         -2.94354791	        -55.05903111	          9.88430702	          8.75661623	          6.70114262	         -8.19334048	          2.62501360	         -2.43057869	        -13.86988297	        -21.52864370	         -6.53755323	         61.16250540	         -4.99726262	        -30.94157793	         19.39854597	         69.97920671	
          0.01677338	        -15.50258087	          0.07804090	          0.11847410	          0.05582944	          0.81862083	          0.00064027	         47.29402052	          3.57742090	          4.50153043	        -32.01187497	         16.62657514	          2.45688104	          0.26222432	         18.32461042	         -1.22497205	         -3.13632587	        -55.98562395	         11.45544573	          8.34470477	          6.22867837	         -8.19579958	          2.55452037	         -2.26798702	        -11.58260169	        -21.85519926	         -4.91979290	         56.23440863	         -4.04709169	        -29.72850408	         19.38236413	         65.45602963	
          0.02236450	        -15.47468936	          0.13415273	          0.21932917	          0.07404777	          0.81676163	          0.00078257	         46.99319815	          3.67874969	          4.64370969	        -33.61403064	         16.37610312	          1.93378485	          0.22350204	         19.79918610	         -1.22342232	         -3.31535776	        -56.81489717	         13.06219413	          7.91920715	          5.78873023	         -8.21685300	          2.48288279	         -2.09793542	         -9.17765636	        -22.16036015	         -3.05779450	         51.19873694	         -3.00759572	        -28.48594231	         19.33741979	         60.78115753	
          0.02795563	        -15.44955546	          0.18381462	          0.31949887	          0.09213301	          0.81509754	          0.00092050	         46.66643508	          3.79579795	          4.78385512	        -35.20559709	         16.42705600	          1.40363684	          0.19610921	         21.33106518	         -1.20877954	         -3.48139677	        -57.54181810	         14.66430989	          7.48762663	          5.37946812	         -8.25055519	          2.41125274	         -1.92142561	         -6.71843502	        -22.42809724	         -0.97187705	         46.18096594	         -1.91062291	        -27.22676731	         19.23795610	         56.03844352	
          0.03354675	        -15.42717754	          0.22811396	          0.42194476	          0.11012116	          0.81363513	          0.00105075	         46.27914682	          3.92367145	          4.92917195	        -36.73017916	         16.72833403	          0.91325219	          0.18037515	         22.90764482	         -1.18258153	         -3.63911003	        -58.16619777	         16.24431036	          7.05660077	          4.99600835	         -8.29211574	          2.33786450	         -1.73779178	         -4.29045756	        -22.65182736	          1.29680181	         41.35689242	         -0.80546937	        -25.97416551	         19.04288482	         51.35789431	
          0.03913788	        -15.40763861	          0.26882997	          0.52977931	          0.12804482	          0.81236900	          0.00117066	         45.81004910	          4.05746383	          5.08058118	        -38.15729033	         17.28471605	          0.46732685	          0.20934917	         24.51665746	         -1.14453485	         -3.79096839	        -58.68884028	         17.78962642	          6.63010727	          4.63520792	         -8.33824835	          2.26003637	         -1.54701511	         -1.99339694	        -22.83712148	          3.68119102	         36.93905551	          0.24753155	        -24.75931101	         18.70340296	         46.90436858	
          0.04472900	        -15.39161742	          0.30571940	          0.64471594	          0.14592662	          0.81130996	          0.00128206	         45.23698784	          4.19569383	          5.24378796	        -39.45225978	         18.08654292	          0.08454066	          0.32640748	         26.14606300	         -1.09618826	         -3.93787156	        -59.10711502	         19.27524043	          6.21257384	          4.29353786	         -8.38821319	          2.17637918	         -1.34984598	          0.07691127	        -23.00255648	          6.09356697	         33.14653828	          1.18408974	        -23.61644493	         18.16814801	         42.86014016	
          0.05032013	        -15.37987609	          0.34052278	          0.76571815	          0.16378532	          0.81047391	          0.00138384	         44.54161533	          4.32804447	          5.40998169	        -40.57086088	         19.01477075	         -0.23879541	          0.54967316	         27.78256366	         -1.03606362	         -4.08130650	        -59.41603316	         20.66793016	          5.80872140	          3.96901999	         -8.44237149	          2.08418249	         -1.14722873	          1.83806237	        -23.18134625	          8.43564222	         30.18310421	          1.93801573	        -22.57983223	         17.39115311	         39.41398665	
          0.05591125	        -15.37296158	          0.37578086	          0.89006483	          0.18163862	          0.80987047	          0.00147441	         43.71643375	          4.44472713	          5.56875372	        -41.48702493	         19.96765166	         -0.51745524	          0.91486872	         29.41364151	         -0.96195575	         -4.22305142	        -59.61344980	         21.93555974	          5.42403625	          3.66161694	         -8.50109917	          1.98047813	         -0.93978391	          3.22982894	        -23.41696160	         10.61555494	         28.21220211	          2.44615219	        -21.68029532	         16.34281074	         36.74437833	
          0.06150238	        -15.37113100	          0.41303811	          1.01445040	          0.19950236	          0.80950233	          0.00155261	         42.76226376	          4.53778547	          5.71147559	        -42.19350953	         20.88626639	         -0.74654489	          1.42283267	         31.02924336	         -0.87277536	         -4.36343085	        -59.70164020	         23.05579109	          5.06232267	          3.37337876	         -8.56442073	          1.86358794	         -0.72813075	          4.22100980	        -23.75437437	         12.56470637	         27.33595172	          2.65512975	        -20.93895495	         15.01842849	         34.99592784	
          0.06709350	        -15.37439798	          0.45346232	          1.13544302	          0.21738983	          0.80936641	          0.00161833	         41.68403884	          4.60078262	          5.83095898	        -42.68994546	         21.72137728	         -0.92132588	          2.04776982	         32.62170173	         -0.76762937	         -4.50046260	        -59.68544138	         24.02540464	          4.72628144	          3.10738817	         -8.63199077	          1.73221087	         -0.51313565	          4.80916276	        -24.23037402	         14.24454731	         27.58713330	          2.52710945	        -20.36266550	         13.44173529	         34.25960705	
          0.07268463	        -15.38260010	          0.49779496	          1.25003426	          0.23531189	          0.80945458	          0.00167208	         40.48843420	          4.62959503	          5.92275738	        -42.98194807	         22.45068780	         -1.03574243	          2.76936038	         34.18546942	         -0.64596974	         -4.63027610	        -59.57034198	         24.84059203	          4.41771571	          2.86735719	         -8.70306394	          1.58557696	         -0.29588430	          5.01574932	        -24.86708498	         15.64408356	         28.93154302	          2.04402476	        -19.94272740	         11.66249513	         34.56212412	
